<?xml version="1.0" encoding="UTF-8" standalone="no"?>
<svg
   version="1.1"
   x="0px"
   y="0px"
   viewBox="0 0 56 56"
   style="enable-background:new 0 0 56 56"
   xml:space="preserve"
   id="svg9"
   sodipodi:docname="icon.svg"
   inkscape:version="1.4.2 (ebf0e94, 2025-05-08)"
   xmlns:inkscape="http://www.inkscape.org/namespaces/inkscape"
   xmlns:sodipodi="http://sodipodi.sourceforge.net/DTD/sodipodi-0.dtd"
   xmlns="http://www.w3.org/2000/svg"
   xmlns:svg="http://www.w3.org/2000/svg"><defs
     id="defs9" /><sodipodi:namedview
     id="namedview9"
     pagecolor="#ffffff"
     bordercolor="#000000"
     borderopacity="0.25"
     inkscape:showpageshadow="2"
     inkscape:pageopacity="0.0"
     inkscape:pagecheckerboard="0"
     inkscape:deskcolor="#d1d1d1"
     inkscape:zoom="7.3678001"
     inkscape:cx="10.925921"
     inkscape:cy="25.448573"
     inkscape:window-width="2560"
     inkscape:window-height="1369"
     inkscape:window-x="-8"
     inkscape:window-y="-8"
     inkscape:window-maximized="1"
     inkscape:current-layer="svg9" /><g
     id="g9"><path
       style="fill:#e9e9e0"
       d="M36.985,0H7.963C7.155,0,6.5,0.655,6.5,1.926V55c0,0.345,0.655,1,1.463,1h40.074 c0.808,0,1.463-0.655,1.463-1V12.978c0-0.696-0.093-0.92-0.257-1.085L37.607,0.257C37.442,0.093,37.218,0,36.985,0z"
       id="path1" /><polygon
       style="fill:#d9d7ca"
       points="37.5,0.151 37.5,12 49.349,12"
       id="polygon1" /><path
       style="fill:#ec6630"
       d="M48.037,56H7.963C7.155,56,6.5,55.345,6.5,54.537V39h43v15.537C49.5,55.345,48.845,56,48.037,56z"
       id="path2" /><g
       id="g6"><path
         style="fill:#fff"
         d="M17.455,42.924V53h-1.641v-4.539h-4.361V53H9.785V42.924h1.668v4.416h4.361v-4.416H17.455z"
         id="path3" /><path
         style="fill:#fff"
         d="M27.107,42.924v1.121H24.1V53h-1.654v-8.955h-3.008v-1.121H27.107z"
         id="path4" /><path
         style="fill:#fff"
         d="M36.705,42.924h1.668V53h-1.668v-6.932l-2.256,5.605H33l-2.27-5.605V53h-1.668V42.924h1.668 l2.994,6.891L36.705,42.924z"
         id="path5" /><path
         style="fill:#fff"
         d="M42.57,42.924v8.832h4.635V53h-6.303V42.924H42.57z"
         id="path6" /></g><g
       id="g8"><path
         style="fill:#ec6630"
         d="M23.207,16.293c-0.391-0.391-1.023-0.391-1.414,0l-6,6c-0.391,0.391-0.391,1.023,0,1.414l6,6 C21.988,29.902,22.244,30,22.5,30s0.512-0.098,0.707-0.293c0.391-0.391,0.391-1.023,0-1.414L17.914,23l5.293-5.293 C23.598,17.316,23.598,16.684,23.207,16.293z"
         id="path7" /><path
         style="fill:#ec6630"
         d="M41.207,22.293l-6-6c-0.391-0.391-1.023-0.391-1.414,0s-0.391,1.023,0,1.414L39.086,23 l-5.293,5.293c-0.391,0.391-0.391,1.023,0,1.414C33.988,29.902,34.244,30,34.5,30s0.512-0.098,0.707-0.293l6-6 C41.598,23.316,41.598,22.684,41.207,22.293z"
         id="path8" /></g></g><g
     id="use1"
     transform="matrix(0.47937656,0,0,0.4184474,2.4861052,-6.0749038)"><ellipse
       cx="101.2"
       cy="22"
       fill="#ffd600"
       rx="4"
       ry="10"
       transform="matrix(0.408,-0.913,0.913,0.408,39.8351,105.4477)"
       id="ellipse9" /><polygon
       fill="#ffccbc"
       points="61.3,111.4 64.3,110.6 80.9,92 79.8,87.7 66.6,81.8 62.6,83.9 59.9,108.7 "
       id="polygon10" /><polygon
       fill="#263238"
       points="64.3,110.6 59,116.5 59.9,108.7 "
       id="polygon11" /><path
       d="m 80.9,92 c 0,0 -0.8,-2.5 -3.2,-3 -1.3,-0.3 -5.1,1.5 -7.3,0.5 -2.6,-1.2 -1.6,-4.7 -2.8,-5.8 -1.7,-1.5 -4.9,0.1 -4.9,0.1 l 29.5,-66 18.3,8.2 z"
       fill="#78909c"
       id="path11"
       style="fill:#ff6600" /></g></svg>
