<?xml version="1.0" encoding="UTF-8" standalone="no"?>
<svg
   version="1.1"
   x="0px"
   y="0px"
   viewBox="0 0 56 56"
   style="enable-background:new 0 0 56 56"
   xml:space="preserve"
   id="svg9"
   sodipodi:docname="icon.svg"
   inkscape:version="1.4.2 (ebf0e94, 2025-05-08)"
   inkscape:export-filename="favicon.png"
   inkscape:export-xdpi="109.71429"
   inkscape:export-ydpi="109.71429"
   xmlns:inkscape="http://www.inkscape.org/namespaces/inkscape"
   xmlns:sodipodi="http://sodipodi.sourceforge.net/DTD/sodipodi-0.dtd"
   xmlns="http://www.w3.org/2000/svg"
   xmlns:svg="http://www.w3.org/2000/svg"><defs
     id="defs9"><linearGradient
       id="swatch16"
       inkscape:swatch="solid"><stop
         style="stop-color:#000000;stop-opacity:0;"
         offset="0"
         id="stop16" /></linearGradient><linearGradient
       id="swatch13"
       inkscape:swatch="solid"><stop
         style="stop-color:#000000;stop-opacity:1;"
         offset="0"
         id="stop14" /></linearGradient></defs><sodipodi:namedview
     id="namedview9"
     pagecolor="#ffffff"
     bordercolor="#000000"
     borderopacity="0.25"
     inkscape:showpageshadow="2"
     inkscape:pageopacity="0.0"
     inkscape:pagecheckerboard="0"
     inkscape:deskcolor="#d1d1d1"
     inkscape:zoom="7.3678001"
     inkscape:cx="11.061646"
     inkscape:cy="25.448573"
     inkscape:window-width="1920"
     inkscape:window-height="1009"
     inkscape:window-x="-8"
     inkscape:window-y="-8"
     inkscape:window-maximized="1"
     inkscape:current-layer="svg9" /><g
     id="g9"
     transform="matrix(0.81727734,0,0,0.74551426,5.3951947,7.1934634)"><path
       style="fill:#e9e9e0"
       d="M 36.985,0 H 7.963 C 7.155,0 6.5,0.655 6.5,1.926 V 55 c 0,0.345 0.655,1 1.463,1 H 48.037 C 48.845,56 49.5,55.345 49.5,55 V 12.978 c 0,-0.696 -0.093,-0.92 -0.257,-1.085 L 37.607,0.257 C 37.442,0.093 37.218,0 36.985,0 Z"
       id="path1" /><polygon
       style="fill:#d9d7ca"
       points="37.5,12 49.349,12 37.5,0.151 "
       id="polygon1" /><path
       style="fill:#ec6630"
       d="M 48.037,56 H 7.963 C 7.155,56 6.5,55.345 6.5,54.537 V 39 h 43 V 54.537 C 49.5,55.345 48.845,56 48.037,56 Z"
       id="path2" /><g
       id="g6"><path
         style="fill:#ffffff"
         d="M 17.455,42.924 V 53 H 15.814 V 48.461 H 11.453 V 53 H 9.785 V 42.924 h 1.668 v 4.416 h 4.361 v -4.416 z"
         id="path3" /><path
         style="fill:#ffffff"
         d="m 27.107,42.924 v 1.121 H 24.1 V 53 h -1.654 v -8.955 h -3.008 v -1.121 z"
         id="path4" /><path
         style="fill:#ffffff"
         d="m 36.705,42.924 h 1.668 V 53 h -1.668 v -6.932 l -2.256,5.605 H 33 L 30.73,46.068 V 53 H 29.062 V 42.924 h 1.668 l 2.994,6.891 z"
         id="path5" /><path
         style="fill:#ffffff"
         d="m 42.57,42.924 v 8.832 h 4.635 V 53 H 40.902 V 42.924 Z"
         id="path6" /></g><g
       id="g8"><path
         style="fill:#ec6630"
         d="m 23.207,16.293 c -0.391,-0.391 -1.023,-0.391 -1.414,0 l -6,6 c -0.391,0.391 -0.391,1.023 0,1.414 l 6,6 C 21.988,29.902 22.244,30 22.5,30 c 0.256,0 0.512,-0.098 0.707,-0.293 0.391,-0.391 0.391,-1.023 0,-1.414 L 17.914,23 23.207,17.707 c 0.391,-0.391 0.391,-1.023 0,-1.414 z"
         id="path7" /><path
         style="fill:#ec6630"
         d="m 41.207,22.293 -6,-6 c -0.391,-0.391 -1.023,-0.391 -1.414,0 -0.391,0.391 -0.391,1.023 0,1.414 L 39.086,23 33.793,28.293 c -0.391,0.391 -0.391,1.023 0,1.414 0.195,0.195 0.451,0.293 0.707,0.293 0.256,0 0.512,-0.098 0.707,-0.293 l 6,-6 c 0.391,-0.391 0.391,-1.023 0,-1.414 z"
         id="path8" /></g></g><g
     id="use1"
     transform="matrix(0.37348534,0,0,0.35649649,7.2650729,0.8378592)"><ellipse
       cx="101.2"
       cy="22"
       fill="#ffd600"
       rx="4"
       ry="10"
       transform="matrix(0.408,-0.913,0.913,0.408,39.8351,105.4477)"
       id="ellipse9" /><polygon
       fill="#ffccbc"
       points="66.6,81.8 62.6,83.9 59.9,108.7 61.3,111.4 64.3,110.6 80.9,92 79.8,87.7 "
       id="polygon10" /><polygon
       fill="#263238"
       points="59,116.5 59.9,108.7 64.3,110.6 "
       id="polygon11" /><path
       d="m 80.9,92 c 0,0 -0.8,-2.5 -3.2,-3 -1.3,-0.3 -5.1,1.5 -7.3,0.5 -2.6,-1.2 -1.6,-4.7 -2.8,-5.8 -1.7,-1.5 -4.9,0.1 -4.9,0.1 l 29.5,-66 18.3,8.2 z"
       fill="#78909c"
       id="path11"
       style="fill:#ff6600" /></g></svg>
